<?xml version="1.0" encoding="UTF-8"?>
<svg version="1.1" xmlns="http://www.w3.org/2000/svg" width="512" height="512">
<path d="M0 0 C1.20049406 -0.00872064 1.20049406 -0.00872064 2.42524052 -0.01761746 C5.12400532 -0.03228879 7.82187076 -0.01829931 10.52062988 -0.00457001 C12.46814186 -0.00917611 14.41565036 -0.01552706 16.36315155 -0.02347898 C21.72802851 -0.04023539 27.09262224 -0.03189731 32.45750046 -0.01953411 C38.23808498 -0.0105117 44.01861961 -0.02443935 49.79919434 -0.0354538 C61.12856818 -0.05327369 72.45783623 -0.04938359 83.78721428 -0.03780323 C92.99190008 -0.02878282 102.19655617 -0.02753887 111.40124512 -0.0318985 C113.3636556 -0.0328179 113.3636556 -0.0328179 115.36571074 -0.03375587 C118.02314568 -0.03503472 120.68058062 -0.03633158 123.33801556 -0.03764623 C147.56630949 -0.04913871 171.79454987 -0.03722043 196.02283466 -0.01627585 C218.1503859 0.00270724 240.27784507 0.00100876 262.40539551 -0.01811981 C287.25373009 -0.0395285 312.102013 -0.04796347 336.95035553 -0.03567076 C339.59821064 -0.03439651 342.24606577 -0.03313903 344.8939209 -0.0318985 C346.84829677 -0.03097285 346.84829677 -0.03097285 348.84215498 -0.03002849 C358.03959861 -0.02656961 367.23700966 -0.03241553 376.43444824 -0.04181671 C387.63759776 -0.05301593 398.84063513 -0.05004045 410.04377174 -0.02869374 C415.76371054 -0.01815534 421.4834621 -0.01410892 427.20339966 -0.02729034 C432.43410968 -0.03916237 437.66445797 -0.03273775 442.89513493 -0.01138014 C444.7927823 -0.00689197 446.69045991 -0.00922955 448.58808804 -0.01888329 C451.15755532 -0.03095757 453.72576562 -0.01866467 456.29516602 0 C457.41356542 -0.014047 457.41356542 -0.014047 458.55455875 -0.02837777 C461.88789372 0.02038548 463.84323195 0.29143828 466.60689878 2.21583986 C468.43468715 4.92964128 468.64858889 6.35467209 468.65094757 9.60712433 C468.66137856 10.64370682 468.67180955 11.68028931 468.68255663 12.74828339 C468.67363374 13.88562424 468.66471086 15.02296509 468.65551758 16.19477081 C468.66487752 18.00876122 468.66487752 18.00876122 468.67442656 19.85939789 C468.68763847 23.2178193 468.68286063 26.57534829 468.67048168 29.93371582 C468.6614457 33.55478261 468.67539366 37.17577041 468.68640137 40.79682159 C468.7042068 47.89104534 468.70033766 54.98510001 468.6887508 62.07933044 C468.67972468 67.84389893 468.67848891 73.60841995 468.68284607 79.37299347 C468.683459 80.19280354 468.68407193 81.01261362 468.68470344 81.85726643 C468.68598231 83.52258938 468.68727917 85.18791232 468.6885938 86.85323524 C468.70000553 102.47642533 468.68687663 118.0995216 468.66539234 133.7226963 C468.64752081 147.13400772 468.65062475 160.54518065 468.66906738 173.95648956 C468.69046366 189.52299531 468.69890684 205.0894188 468.68661833 220.65593719 C468.6853441 222.31520334 468.68408662 223.97446949 468.68284607 225.63373566 C468.68192042 226.85838642 468.68192042 226.85838642 468.68097606 228.1077776 C468.67751943 233.86677586 468.68335824 239.62572202 468.69276428 245.38471222 C468.70397187 252.40109803 468.7009705 259.4173048 468.67964131 266.43367004 C468.669114 270.01496487 468.66503726 273.59596097 468.67823792 277.17725372 C468.69231772 281.05565827 468.67552953 284.93357148 468.65551758 288.81195831 C468.66890191 290.51796959 468.66890191 290.51796959 468.68255663 292.25844574 C468.67212564 293.29502823 468.66169465 294.33161072 468.65094757 295.3996048 C468.65029816 296.29509537 468.64964875 297.19058594 468.64897966 298.11321259 C467.97699437 301.31655858 466.70549214 302.51871065 464.14758301 304.50336456 C461.4107533 304.79451666 459.10818262 304.88658874 456.39758301 304.75336456 C455.7002002 304.73531769 455.00281738 304.71727081 454.28430176 304.69867706 C452.57146761 304.6517501 450.85934477 304.58001061 449.14758301 304.50336456 C449.63364014 305.60519073 450.11969727 306.70701691 450.6204834 307.84223175 C452.51958449 312.93544374 452.59790003 317.69298184 452.58117676 323.08148956 C452.58641861 324.08814667 452.59166046 325.09480377 452.59706116 326.13196564 C452.60346195 328.25998773 452.60216964 330.3880453 452.59362793 332.51605988 C452.58521697 335.70261159 452.61374641 338.88730658 452.64562988 342.07367706 C452.76595786 377.37062863 441.04063964 409.55021455 418.14758301 436.50336456 C417.62680176 436.9970755 417.10602051 437.49078644 416.56945801 437.99945831 C413.06142895 441.3966014 412.83070644 444.22753835 412.58508301 448.87836456 C412.58379395 449.93797394 412.58250488 450.99758331 412.58117676 452.08930206 C412.17508247 455.28683724 411.57432086 456.92636863 410.1204834 459.71674347 C409.7531459 460.42843689 409.38580841 461.14013031 409.00733948 461.8733902 C408.72361984 462.41128174 408.43990021 462.94917328 408.14758301 463.50336456 C408.84027283 463.50701019 409.53296265 463.51065582 410.24664307 463.51441193 C417.44931722 463.55618752 424.65135121 463.62549888 431.8536377 463.71088409 C434.5424549 463.74134652 437.23108399 463.76201022 439.92004395 463.77436066 C443.78278498 463.79574114 447.64451749 463.84236964 451.50695801 463.89398956 C453.31338776 463.89583252 453.31338776 463.89583252 455.15631104 463.89771271 C456.27717102 463.91743134 457.39803101 463.93714996 458.55285645 463.95746613 C459.53880798 463.96634857 460.52475952 463.97523102 461.54058838 463.98438263 C464.85612546 464.64441615 466.05494231 465.90438721 468.14758301 468.50336456 C468.67883301 470.50336456 468.67883301 470.50336456 468.64758301 472.50336456 C468.65789551 473.16336456 468.66820801 473.82336456 468.67883301 474.50336456 C467.88037216 477.50933482 466.60190312 478.59942765 464.14758301 480.50336456 C461.3961211 480.89543718 459.04521061 481.04126944 456.29516602 481.00672913 C455.09467196 481.01544977 455.09467196 481.01544977 453.8699255 481.02434659 C451.1711607 481.03901792 448.47329526 481.02502843 445.77453613 481.01129913 C443.82702416 481.01590523 441.87951565 481.02225618 439.93201447 481.03020811 C434.5671375 481.04696451 429.20254377 481.03862644 423.83766556 481.02626324 C418.05708103 481.01724083 412.2765464 481.03116848 406.49597168 481.04218292 C395.16659784 481.06000282 383.83732978 481.05611271 372.50795174 481.04453236 C363.30326593 481.03551194 354.09860985 481.034268 344.8939209 481.03862762 C343.58564724 481.03924056 342.27737359 481.03985349 340.92945528 481.04048499 C338.27202033 481.04176385 335.61458539 481.0430607 332.95715046 481.04437536 C308.72885652 481.05586783 284.50061615 481.04394956 260.27233136 481.02300497 C238.14478012 481.00402189 216.01732094 481.00572037 193.88977051 481.02484894 C169.04143593 481.04625763 144.19315301 481.0546926 119.34481049 481.04239988 C116.69695537 481.04112564 114.04910025 481.03986816 111.40124512 481.03862762 C109.44686925 481.03770197 109.44686925 481.03770197 107.45301104 481.03675762 C98.2555674 481.03329873 89.05815636 481.03914465 79.86071777 481.04854584 C68.65756825 481.05974505 57.45453088 481.05676958 46.25139427 481.03542286 C40.53145548 481.02488446 34.81170392 481.02083805 29.09176636 481.03401947 C23.86105633 481.0458915 18.63070804 481.03946687 13.40003109 481.01810926 C11.50238371 481.0136211 9.60470611 481.01595868 7.70707798 481.02561241 C5.1376107 481.03768669 2.56940039 481.0253938 0 481.00672913 C-1.11839941 481.02077612 -1.11839941 481.02077612 -2.25939274 481.0351069 C-5.72533296 480.98440376 -7.53389184 480.7504602 -10.30998993 478.59690428 C-11.98280758 476.32638512 -12.39593466 475.28849541 -12.35241699 472.50336456 C-12.36272949 471.84336456 -12.37304199 471.18336456 -12.38366699 470.50336456 C-11.61147849 467.59630197 -10.14380712 466.40974882 -7.85241699 464.50336456 C-5.4352417 464.0223465 -5.4352417 464.0223465 -2.7166748 464.049263 C-1.18554047 464.04971619 -1.18554047 464.04971619 0.37652588 464.05017853 C1.47144348 464.07082367 2.56636108 464.09146881 3.69445801 464.11273956 C4.82079651 464.11839935 5.94713501 464.12405914 7.10760498 464.12989044 C10.70469683 464.15227911 14.30079227 464.20248243 17.89758301 464.25336456 C20.33637071 464.27342624 22.77517402 464.29167758 25.21398926 464.30805206 C31.19219375 464.35215213 37.1698172 464.41908993 43.14758301 464.50336456 C43.02577667 463.50354553 42.90397034 462.5037265 42.7784729 461.47360992 C41.17368434 447.90550628 40.17181206 434.30901406 39.20227051 420.68305206 C39.02606972 418.24252929 38.84956076 415.80202876 38.67276001 413.36154938 C38.21269869 406.99977745 37.75676897 400.63771622 37.30175781 394.27558136 C36.83493765 387.75887797 36.36412948 381.24246278 35.89367676 374.72602081 C34.97445272 361.98541137 34.05946602 349.24450143 33.14758301 336.50336456 C32.41120605 336.52431183 31.6748291 336.54525909 30.9161377 336.56684113 C27.57675858 336.650036 24.23759752 336.70203613 20.89758301 336.75336456 C19.73871582 336.78688019 18.57984863 336.82039581 17.38586426 336.85492706 C16.2708252 336.86781769 15.15578613 336.88070831 14.00695801 336.89398956 C12.98054199 336.91493683 11.95412598 336.93588409 10.89660645 336.95746613 C7.44031955 336.38653419 6.29494369 335.20926546 4.14758301 332.50336456 C3.61633301 330.50336456 3.61633301 330.50336456 3.64758301 328.50336456 C3.63727051 327.84336456 3.62695801 327.18336456 3.61633301 326.50336456 C4.39327965 323.57838897 5.82464569 322.40572796 8.14758301 320.50336456 C10.80480957 320.049263 10.80480957 320.049263 13.78820801 320.11273956 C15.39309082 320.1320755 15.39309082 320.1320755 17.03039551 320.15180206 C18.69715332 320.2020755 18.69715332 320.2020755 20.39758301 320.25336456 C21.52422363 320.27141144 22.65086426 320.28945831 23.81164551 320.30805206 C26.5906548 320.35515392 29.3692267 320.42689604 32.14758301 320.50336456 C31.81758301 315.22336456 31.48758301 309.94336456 31.14758301 304.50336456 C29.98710449 304.52431183 28.82662598 304.54525909 27.63098145 304.56684113 C23.32235063 304.63928263 19.01377356 304.68517927 14.70471191 304.72309113 C12.840362 304.74319718 10.97607506 304.77048636 9.11193848 304.80512238 C6.43095353 304.85368577 3.75080278 304.87634294 1.06945801 304.89398956 C0.23702576 304.9146347 -0.59540649 304.93527985 -1.45306396 304.9565506 C-2.62382477 304.95700378 -2.62382477 304.95700378 -3.8182373 304.95746613 C-4.50218567 304.96634857 -5.18613403 304.97523102 -5.89080811 304.98438263 C-8.79373989 304.27253704 -9.9593218 302.7733826 -11.85241699 300.50336456 C-12.35381365 298.11321259 -12.35381365 298.11321259 -12.35578156 295.3996048 C-12.36621254 294.36302231 -12.37664353 293.32643982 -12.38739061 292.25844574 C-12.37846773 291.12110489 -12.36954484 289.98376404 -12.36035156 288.81195831 C-12.36659153 287.60263138 -12.37283149 286.39330444 -12.37926054 285.14733124 C-12.39247246 281.78890983 -12.38769461 278.43138083 -12.37531567 275.07301331 C-12.36627968 271.45194651 -12.38022764 267.83095872 -12.39123535 264.20990753 C-12.40904078 257.11568378 -12.40517165 250.02162911 -12.39358479 242.92739868 C-12.38455867 237.1628302 -12.3833229 231.39830917 -12.38768005 225.63373566 C-12.38829299 224.81392558 -12.38890592 223.99411551 -12.38953742 223.1494627 C-12.3908163 221.48413975 -12.39211315 219.81881681 -12.39342779 218.15349388 C-12.40483951 202.53030379 -12.39171062 186.90720752 -12.37022632 171.28403282 C-12.35235479 157.87272141 -12.35545873 144.46154848 -12.37390137 131.05023956 C-12.39529765 115.48373381 -12.40374082 99.91731033 -12.39145231 84.35079193 C-12.39017809 82.69152579 -12.38892061 81.03225964 -12.38768005 79.37299347 C-12.38706295 78.55655963 -12.38644585 77.74012579 -12.38581005 76.89895153 C-12.38235341 71.13995327 -12.38819223 65.3810071 -12.39759827 59.62201691 C-12.40880585 52.6056311 -12.40580448 45.58942433 -12.38447529 38.57305908 C-12.37394799 34.99176426 -12.36987125 31.41076816 -12.3830719 27.8294754 C-12.39715171 23.95107085 -12.38036351 20.07315765 -12.36035156 16.19477081 C-12.36927445 15.05742996 -12.37819734 13.92008911 -12.38739061 12.74828339 C-12.37695962 11.7117009 -12.36652864 10.67511841 -12.35578156 9.60712433 C-12.35513215 8.71163376 -12.35448274 7.81614319 -12.35381365 6.89351654 C-10.94374317 0.17172711 -5.92478477 -0.07441477 0 0 Z M183.14758301 336.50336456 C181.95512402 338.88828255 181.88274595 340.64184751 181.68565369 343.3038559 C181.60855164 344.31749207 181.53144958 345.33112823 181.45201111 346.37548065 C181.37144974 347.49187424 181.29088837 348.60826782 181.20788574 349.75849152 C181.11995758 350.93093414 181.03202942 352.10337677 180.94143677 353.31134796 C180.70077877 356.53231611 180.4639157 359.75353615 180.22882724 362.97491479 C179.9820661 366.34538027 179.73080724 369.71551058 179.4801178 373.08568573 C179.0595218 378.74903581 178.64217117 384.41261762 178.22692871 390.07636261 C177.74712842 396.62036502 177.26313428 403.1640461 176.77666706 409.70755607 C176.25874215 416.67454717 175.74364136 423.64174487 175.22950101 430.60901618 C175.08129215 432.615084 174.93258619 434.62111447 174.78378105 436.62713814 C174.50660016 440.37130788 174.23187515 444.11564955 173.95788574 447.86005402 C173.87530014 448.97037491 173.79271454 450.0806958 173.70762634 451.22466278 C173.63334412 452.24675842 173.55906189 453.26885406 173.48252869 454.3219223 C173.41745841 455.20701131 173.35238813 456.09210032 173.28534603 457.0040102 C173.1477449 459.50042736 173.14758301 462.00315803 173.14758301 464.50336456 C202.84758301 464.50336456 232.54758301 464.50336456 263.14758301 464.50336456 C259.98635873 461.97438514 256.82287683 459.49117613 253.59387207 457.05438995 C224.22571856 434.79129331 202.96950218 402.03789977 197.63586426 365.14398956 C196.50414295 355.65543352 196.37997013 346.04726322 196.14758301 336.50336456 C191.85758301 336.50336456 187.56758301 336.50336456 183.14758301 336.50336456 Z " fill="#000000" transform="translate(27.8524169921875,15.496635437011719)"/>
<path d="M0 0 C147.84 0 295.68 0 448 0 C448 89.76 448 179.52 448 272 C436.45 272 424.9 272 413 272 C410.36 269.03 407.72 266.06 405 263 C402.17909999 261.30745999 399.99456914 260.10390431 397 259 C395.9275 258.5875 394.855 258.175 393.75 257.75 C385.68373029 256.13674606 378.91868669 255.95438105 371.7421875 260.16796875 C368.26126998 261.83038003 365.30179468 260.45154502 361.8828125 259.265625 C360 258 360 258 359.3828125 255.6796875 C359.29773438 254.75414062 359.21265625 253.82859375 359.125 252.875 C358.04633733 245.59164057 354.73186117 241.47168392 349.375 236.625 C347.14779159 234.98555304 347.14779159 234.98555304 345.03125 234.16796875 C342.49222463 232.70802916 341.61478384 231.19151522 340.125 228.6875 C336.72783368 223.39166678 333.72950813 220.10230136 327.75 217.6875 C320.65687175 216.38709315 314.3273121 215.93580652 307.88671875 219.59375 C303.86907661 222.58826588 300.13080558 226.47231695 298.0703125 231.078125 C296.69207908 233.55290911 295.18794731 234.34030258 292.75 235.75 C288.03858768 238.79231295 284.50508117 241.91155387 282 247 C281.6196553 248.90436479 281.30873816 250.82369937 281.0625 252.75 C280.4028178 257.5410253 280.4028178 257.5410253 278.54296875 259.66015625 C275.4621674 261.64019198 273.44700541 262.08940108 269.875 261.375 C268.451875 260.694375 268.451875 260.694375 267 260 C259.58560746 256.45683896 250.30385942 256.68170072 242.53125 259.0625 C237.450074 261.42345046 234.29548833 263.58092067 230.98632812 268.08203125 C228.15430576 271.34282502 226.40224672 272.56840344 222.07446289 272.90820312 C220.20671497 272.90694971 218.33863621 272.86250666 216.47265625 272.78125 C214.98928017 272.76427063 214.98928017 272.76427063 213.47593689 272.74694824 C210.33610274 272.70237879 207.20093891 272.60205523 204.0625 272.5 C201.92649853 272.45984777 199.79042504 272.42335006 197.65429688 272.390625 C192.43441511 272.30270685 187.21799755 272.16479555 182 272 C182.33 266.72 182.66 261.44 183 256 C185.31 255.01 187.62 254.02 190 253 C192.76219615 247.4756077 190.42287081 241.05729255 188.75 235.5 C188.28644557 233.91705112 187.82422863 232.33371001 187.36328125 230.75 C187.01644287 229.56470703 187.01644287 229.56470703 186.66259766 228.35546875 C186.02830354 226.10061627 185.45952072 223.84121159 184.91796875 221.5625 C184.75135742 220.87607422 184.58474609 220.18964844 184.41308594 219.48242188 C183.96270669 217.60507099 183.52586919 215.72448646 183.08984375 213.84375 C182.29544538 210.97653687 182.29544538 210.97653687 180.34466553 209.8421936 C177.28021516 208.74145643 174.65285863 208.71788938 171.39550781 208.68115234 C170.74143448 208.67110672 170.08736115 208.6610611 169.41346741 208.65071106 C167.26002855 208.61991766 165.1067138 208.60285504 162.953125 208.5859375 C161.45667455 208.56722271 159.96023462 208.54764906 158.46380615 208.5272522 C154.53149622 208.47595762 150.59915209 208.43631772 146.66668701 208.39910889 C142.65140338 208.35905239 138.63626169 208.30796757 134.62109375 208.2578125 C126.74749286 208.16108492 118.87382163 208.07667013 111 208 C109.55142881 200.54469981 108.46685113 193.11332815 107.6328125 185.56640625 C107.38495429 183.43284499 107.13623165 181.29938401 106.88671875 179.16601562 C106.50125248 175.84661305 106.12108735 172.52696313 105.75537109 169.20532227 C105.39696668 165.96947629 105.01679956 162.73680264 104.6328125 159.50390625 C104.52848907 158.50911758 104.42416565 157.51432892 104.31668091 156.48939514 C103.6999136 151.2291413 103.6999136 151.2291413 101.34667969 146.58666992 C98.28347595 144.51553373 95.12390279 142.75661156 91.8203125 141.109375 C90.78473709 140.58515961 90.78473709 140.58515961 89.72824097 140.050354 C88.27285449 139.31693898 86.81537611 138.58766208 85.35595703 137.86230469 C83.13197754 136.75347884 80.9195143 135.62374404 78.70703125 134.4921875 C77.28710815 133.77995303 75.86655505 133.06897288 74.4453125 132.359375 C73.78886749 132.02194275 73.13242249 131.6845105 72.45608521 131.33685303 C68.47642038 129.38653678 65.42772672 128.48591635 61 129 C58.5 130.5 58.5 130.5 57 133 C56.33333333 136 56.33333333 136 57 139 C60.00937353 142.83015256 62.629631 143.64879403 67.3046875 144.66015625 C75.49348621 147.05242599 84.00290883 149.58556652 89 157 C95.17880341 172.50210613 94.64793963 191.52766824 95 208 C94.18202942 208.00364563 93.36405884 208.00729126 92.52130127 208.01104736 C84.81102071 208.04892092 77.10122369 208.10576561 69.39125443 208.18390274 C65.42748615 208.22340509 61.46394094 208.25557975 57.5 208.27099609 C53.67421181 208.28614497 49.84903674 208.32055775 46.02352142 208.36830902 C44.56435222 208.38314133 43.10509548 208.39104208 41.64585114 208.39188385 C39.60080171 208.39424995 37.5574517 208.42129482 35.51269531 208.45410156 C34.34909485 208.46298401 33.18549438 208.47186646 31.9866333 208.48101807 C28.36770715 209.1098724 27.21388447 210.12194815 25 213 C23.83660677 216.13017578 23.83660677 216.13017578 23.11328125 219.6640625 C22.9659404 220.29734467 22.81859955 220.93062683 22.66679382 221.58309937 C22.20164834 223.59421833 21.75648613 225.60911505 21.3125 227.625 C20.70887166 230.28488558 20.09817901 232.94310224 19.48828125 235.6015625 C19.09443237 237.37007568 19.09443237 237.37007568 18.69262695 239.17431641 C18 242 18 242 17 244 C16.50127542 249.03330468 16.50127542 249.03330468 18.75 253.375 C21.10832228 255.29014897 21.10832228 255.29014897 25 256 C25.33 261.28 25.66 266.56 26 272 C17.42 272 8.84 272 0 272 C0 182.24 0 92.48 0 0 Z " fill="#99A2A7" transform="translate(32,32)"/>
<path d="M0 0 C40.92 0 81.84 0 124 0 C124 9.41562992 123.98954941 18.50742097 123.23730469 27.83569336 C123.15594772 28.907146 123.07459076 29.97859863 122.99076843 31.08251953 C122.72344045 34.58542012 122.44763785 38.08759802 122.171875 41.58984375 C121.97909097 44.09838961 121.7869049 46.60698149 121.59527588 49.11561584 C121.14043858 55.0540681 120.68049862 60.99210977 120.21772408 66.92994744 C119.35630954 77.98508677 118.50612519 89.04109567 117.65663147 100.09715652 C117.45875841 102.67173838 117.26062889 105.24630054 117.0622406 107.82084274 C114.90236674 135.8716867 112.9414917 163.93297658 111 192 C78.66 192 46.32 192 13 192 C11.7315625 174.05625 11.7315625 174.05625 10.4375 155.75 C8.70665691 131.32788695 6.93403293 106.91025299 5.04296875 82.5 C4.88076075 80.40057624 4.71858509 78.30114998 4.55644226 76.20172119 C3.84982775 67.06176063 3.13977206 57.92211693 2.41557407 48.78353119 C2.11638724 44.99311673 1.82217359 41.20232661 1.52906227 37.41143799 C1.39286757 35.66484064 1.25450884 33.91841028 1.1136837 32.17218018 C0.91916369 29.75810251 0.73249154 27.34352463 0.54736328 24.92871094 C0.46330058 23.9222735 0.46330058 23.9222735 0.37753963 22.895504 C-0.19330704 15.22754973 0 7.76139675 0 0 Z " fill="#2C84CB" transform="translate(74,288)"/>
<path d="M0 0 C73.92 0 147.84 0 224 0 C220.34768419 29.21852649 210.67342069 53.94441146 191 76 C187.05571244 75.15479552 183.99701138 74.32847852 181.5078125 71.01171875 C181.05148437 70.24472656 180.59515625 69.47773438 180.125 68.6875 C176.72783368 63.39166678 173.72950813 60.10230136 167.75 57.6875 C160.65687175 56.38709315 154.3273121 55.93580652 147.88671875 59.59375 C143.8478053 62.60412028 140.1431981 66.4951879 138.0390625 71.10546875 C136.76036304 73.43693205 135.57720959 74.07222357 133.25 75.3125 C127.27289212 78.84442738 123.19037357 83.35918558 121 90 C119.96875259 97.80630309 121.59858651 103.99976956 125 111 C102.83598191 116.31593471 77.36809104 108.8539481 58.44140625 97.2578125 C30.26704706 79.19340749 10.13854372 51.14712221 2.41357422 18.5234375 C1.12091334 12.37990307 0 6.2929183 0 0 Z " fill="#EA413E" transform="translate(240,368)"/>
<path d="M0 0 C13.48848158 10.19860802 22.45240456 25.30705013 25.5625 41.9375 C27.49070812 58.86370883 24.03440968 76.19311854 13.5625 89.9375 C4.51387155 101.18544787 -4.93527412 107.98305421 -18.4375 112.9375 C-19.1903125 113.25847656 -19.943125 113.57945312 -20.71875 113.91015625 C-36.10065356 119.73253172 -52.94155069 115.82812435 -67.44921875 109.65625 C-84.57406238 101.25261775 -94.42683999 86.30971341 -100.53515625 68.7890625 C-105.07080577 54.45562464 -103.26988616 37.61536668 -96.70703125 24.3046875 C-87.46116615 6.70634611 -72.9265625 -4.96805241 -54.0625 -11 C-35.56250347 -15.42035315 -15.53060989 -10.47413225 0 0 Z " fill="#E7ECF0" transform="translate(294.4375,100.0625)"/>
<path d="M0 0 C4.02300197 1.34100066 6.84404335 3.29647951 10.05859375 5.9765625 C12.8823936 7.46516524 14.85080265 7.37518954 18 7 C20.5552909 5.50958017 20.5552909 5.50958017 22.875 3.5 C28.3367454 -0.53089892 28.3367454 -0.53089892 32.125 -0.6875 C38.26283316 0.4014704 42.45497758 2.04839274 46.375 7 C47.32471964 8.75332857 48.25268321 10.51940438 49.125 12.3125 C49.88818611 14.1891646 49.88818611 14.1891646 52 15 C55.73297945 15.24112547 59.46507869 15.38307608 63.203125 15.5234375 C67.82090506 16.10303541 71.21470164 17.33343883 74.64453125 20.53515625 C82.23185807 30.45704517 79 29.45816079 79 48 C5.08 48 -68.84 48 -145 48 C-145 27 -145 27 -141 21 C-135.52018778 16.17254637 -131.62797871 15.75897713 -124.5859375 15.48242188 C-119.47027916 15.23726539 -119.47027916 15.23726539 -115 13 C-113.81575939 11.16869877 -113.81575939 11.16869877 -113 9.0625 C-111.47160086 5.76688936 -110.30807374 3.75741417 -107 2 C-102.36636823 0.63367268 -97.77745493 0.19894638 -93 1 C-90.78676716 2.38025248 -88.92109567 3.96112413 -86.9296875 5.640625 C-84.23834013 7.53655392 -82.25639877 7.83639284 -79.01171875 7.61328125 C-75.72408182 6.61103077 -73.42775668 4.44481691 -70.80859375 2.28515625 C-69 1 -69 1 -66.375 0.875 C-63.37099638 2.29794908 -60.75544087 4.14429492 -58 6 C-57.030625 6.309375 -56.06125 6.61875 -55.0625 6.9375 C-52.28950482 7.89955955 -50.79050097 8.77331465 -48.5 10.5 C-42.37946372 15.02039607 -36.44387043 15.70059957 -29 15 C-22.21241663 13.72233725 -18.25965718 11.49262384 -13 7 C-10.45679475 5.86657152 -7.89935013 4.90515074 -5.26953125 3.9921875 C-2.93020445 2.96948697 -1.65880152 1.91275485 0 0 Z " fill="#FDD239" transform="translate(385,304)"/>
<path d="M0 0 C3.15374738 2.17692297 6.08854088 4.51224595 9 7 C10.010625 7.763125 11.02125 8.52625 12.0625 9.3125 C23.72230371 19.97997999 31.17652497 33.81966846 35 49 C35.35707031 50.26070312 35.71414063 51.52140625 36.08203125 52.8203125 C37.17184906 57.23093094 37.34537653 61.47102319 37.3125 66 C37.30686035 66.8252417 37.3012207 67.6504834 37.29541016 68.50073242 C36.87824331 90.00547674 28.9354418 109.03954413 14.2421875 124.84765625 C-2.89781771 141.30086683 -24.6713729 148.68243876 -48.13671875 148.26953125 C-65.59934913 147.56547684 -81.87324998 140.39730779 -95 129 C-96.5159375 127.8553125 -96.5159375 127.8553125 -98.0625 126.6875 C-109.90799401 115.85013314 -116.64841518 102.18980171 -121 87 C-121.36738281 85.73542969 -121.73476562 84.47085938 -122.11328125 83.16796875 C-126.73442124 64.14676029 -121.77545131 43.44715133 -112.14160156 26.86816406 C-100.6880593 8.12511329 -83.27652127 -4.64107569 -62 -10 C-60.75605469 -10.35449219 -59.51210937 -10.70898438 -58.23046875 -11.07421875 C-38.60707232 -15.91018397 -16.93159045 -10.23770585 0 0 Z M-92.69921875 26.85546875 C-104.60382821 41.5096993 -108.44145918 58.56437462 -106.71875 77.01171875 C-104.12077114 94.12340644 -95.28213404 109.58505491 -81.40234375 119.9375 C-66.2312496 130.06611537 -48.63045737 135.11032763 -30.48242188 131.49902344 C-13.28479991 127.03757139 1.63153525 117.70713041 11.5078125 102.6328125 C14.17083657 97.9341784 16.1425668 93.06201575 18 88 C18.32097656 87.2471875 18.64195312 86.494375 18.97265625 85.71875 C24.79503172 70.33684644 20.89062435 53.49594931 14.71875 38.98828125 C6.31511775 21.86343762 -8.62778659 12.01066001 -26.1484375 5.90234375 C-50.77365818 -1.8900206 -75.94477734 8.56038905 -92.69921875 26.85546875 Z " fill="#020202" transform="translate(299,84)"/>
<path d="M0 0 C8.69819287 5.39582812 15.26611344 13.16281304 18.11328125 23.0546875 C20.93255298 35.49836963 19.50836842 46.52151979 12.6796875 57.4921875 C5.76930075 66.99826679 -2.59532081 71.02135694 -13.5703125 74.6796875 C-26.34519354 75.78779366 -36.65510359 73.54693209 -46.828125 65.2734375 C-55.562175 57.28354422 -59.73308855 48.36449059 -60.86328125 36.640625 C-61.37491711 25.05276409 -57.38184129 15.21876064 -49.5703125 6.6796875 C-35.91747281 -7.16635275 -17.09602669 -8.78184958 0 0 Z " fill="#000102" transform="translate(156.5703125,325.3203125)"/>
<path d="M0 0 C5.07475194 2.88384498 9.35762738 6.54898543 12.0078125 11.79296875 C14.04500516 15.27591104 15.54169545 16.18491022 19.0703125 17.94921875 C23.49167244 20.67572404 26.72337912 25.08662229 29.3828125 29.48046875 C30.91066386 36.61044175 30.59370488 43.69508918 26.9453125 50.10546875 C22.61540278 56.17390283 18.40692646 59.47317096 11.3828125 62.04296875 C8.83060605 63.00624223 8.83060605 63.00624223 6.7578125 65.04296875 C0.27390938 69.79783104 -8.15735576 71.24982733 -16.0546875 70.10546875 C-20.47313485 68.73349863 -24.08432872 66.89099729 -27.6796875 63.98046875 C-29.9995994 61.87440834 -29.9995994 61.87440834 -33.3046875 61.35546875 C-39.76020149 59.20363075 -44.51442478 54.60839566 -48.0546875 48.85546875 C-50.51191967 42.09808029 -51.56903802 34.76972495 -48.6171875 27.98046875 C-45.84489106 23.10162447 -41.6057672 19.31846692 -37.0546875 16.10546875 C-35.7265703 15.75192442 -34.39420811 15.41299666 -33.0546875 15.10546875 C-32.7865625 14.42484375 -32.5184375 13.74421875 -32.2421875 13.04296875 C-29.65483481 6.64267526 -24.55349444 1.48176287 -18.22265625 -1.2734375 C-12.12178227 -3.02125545 -5.80887699 -2.50463724 0 0 Z " fill="#020201" transform="translate(434.0546875,193.89453125)"/>
<path d="M0 0 C4.72413732 1.47798414 9.06814268 3.68980167 13.47207642 5.92544556 C15.04253975 6.70815071 15.04253975 6.70815071 16.64472961 7.50666809 C18.84701978 8.60796215 21.04634361 9.71520585 23.24282837 10.82803345 C26.60737603 12.53019635 29.98307894 14.20848338 33.36074829 15.88442993 C35.50272905 16.95919847 37.64402956 18.03532403 39.78457642 19.11294556 C40.79393753 19.61413406 41.80329865 20.11532257 42.84324646 20.63169861 C43.77819443 21.10866684 44.7131424 21.58563507 45.67642212 22.07705688 C46.49834549 22.49151566 47.32026886 22.90597443 48.167099 23.33299255 C50.54288028 24.87886189 51.81519931 26.3123088 53.29629517 28.71841431 C53.79629517 31.65591431 53.79629517 31.65591431 53.29629517 34.71841431 C49.16935521 39.84842625 43.84538352 42.31474937 38.02676392 45.20278931 C37.03179398 45.70385193 36.03682404 46.20491455 35.01170349 46.72116089 C32.91204097 47.7748738 30.80981907 48.82350033 28.70523071 49.86734009 C25.49736422 51.4616704 22.30191202 53.07909006 19.10684204 54.69888306 C17.06002471 55.72243692 15.01252043 56.74461848 12.96426392 57.76528931 C12.01504562 58.24753967 11.06582733 58.72979004 10.08784485 59.22665405 C4.7255223 61.86130549 0.3002042 63.52497044 -5.70370483 63.71841431 C-8.9708231 62.04296904 -9.53151584 61.2349813 -10.70370483 57.71841431 C-10.81596796 56.01207274 -10.87266895 54.30181291 -10.89657593 52.59194946 C-10.92067032 51.02484726 -10.92067032 51.02484726 -10.94525146 49.42608643 C-10.98972826 44.65830167 -11.03074788 39.89065475 -11.05380249 35.12271118 C-11.07038108 32.6066667 -11.09769565 30.09066967 -11.13583374 27.57485962 C-11.190527 23.9479834 -11.21246405 20.32220955 -11.22714233 16.69497681 C-11.24981171 15.57088409 -11.27248108 14.44679138 -11.2958374 13.28863525 C-11.28277541 8.47162255 -11.22748619 5.57158783 -8.67098999 1.40737915 C-5.46784584 -0.41583553 -3.61322322 -0.72538853 0 0 Z " fill="#020202" transform="translate(242.70370483398438,120.28158569335938)"/>
<path d="M0 0 C43.56 0 87.12 0 132 0 C133.98 7.92 133.98 7.92 136 16 C89.8 16 43.6 16 -4 16 C-2.68 10.72 -1.36 5.44 0 0 Z " fill="#D9DBDD" transform="translate(70,256)"/>
<path d="M0 0 C3.86824444 2.78873436 5.13308536 5.13641545 6.1875 9.625 C6.75798378 12.00372696 6.75798378 12.00372696 8 14 C10.54514812 15.22288102 12.84783368 15.78600676 15.625 16.26953125 C18.6267488 17.19276649 19.45810687 18.3091478 21 21 C21.41154848 24.29238783 21.46132149 26.20599475 19.78125 29.09765625 C17.6171463 31.40888103 16.18746685 31.76264028 13.125 32.4375 C8.47439758 33.66276789 6.19488927 35.3210366 3 39 C-1.4877366 40.4959122 -5.33790993 40.77306515 -9.6875 38.75 C-12 37 -12 37 -13.8125 34.9375 C-16.13350133 32.88175597 -17.12149046 32.60644905 -20.0625 32 C-22.79886957 31.40890341 -23.84221882 31.13805853 -26 29.25 C-27.36352148 26.18207667 -27.54312509 24.32664118 -27 21 C-24.21126564 17.13175556 -21.86358455 15.86691464 -17.375 14.8125 C-14.99627304 14.24201622 -14.99627304 14.24201622 -13 13 C-11.77711898 10.45485188 -11.21399324 8.15216632 -10.73046875 5.375 C-9.1277003 0.16385979 -4.9991615 -0.81618963 0 0 Z " fill="#FAE26A" transform="translate(355,264)"/>
<path d="M0 0 C3.86824444 2.78873436 5.13308536 5.13641545 6.1875 9.625 C6.75798378 12.00372696 6.75798378 12.00372696 8 14 C10.54514812 15.22288102 12.84783368 15.78600676 15.625 16.26953125 C18.6267488 17.19276649 19.45810687 18.3091478 21 21 C21.41154848 24.29238783 21.46132149 26.20599475 19.78125 29.09765625 C17.6171463 31.40888103 16.18746685 31.76264028 13.125 32.4375 C8.47439758 33.66276789 6.19488927 35.3210366 3 39 C-1.4877366 40.4959122 -5.33790993 40.77306515 -9.6875 38.75 C-12 37 -12 37 -13.8125 34.9375 C-16.1507812 32.86645094 -17.09771957 32.63597943 -20.0625 32.0625 C-23.10808104 31.40338172 -23.83304917 31.17706906 -26.0625 28.8125 C-27.30272151 25.09183547 -27.04540505 22.76345817 -26 19 C-24.14803693 16.83937642 -22.59760594 16.13508272 -19.83984375 15.51171875 C-17.28730224 14.90159907 -15.26366593 14.34351165 -13 13 C-11.77620701 10.45330403 -11.214288 8.15385926 -10.73046875 5.375 C-9.1277003 0.16385979 -4.9991615 -0.81618963 0 0 Z " fill="#FAE26A" transform="translate(403,440)"/>
<path d="M0 0 C3.86824444 2.78873436 5.13308536 5.13641545 6.1875 9.625 C6.75798378 12.00372696 6.75798378 12.00372696 8 14 C10.54514812 15.22288102 12.84783368 15.78600676 15.625 16.26953125 C18.6267488 17.19276649 19.45810687 18.3091478 21 21 C21.41154848 24.29238783 21.46132149 26.20599475 19.78125 29.09765625 C17.6171463 31.40888103 16.18746685 31.76264028 13.125 32.4375 C8.47439758 33.66276789 6.19488927 35.3210366 3 39 C-1.4877366 40.4959122 -5.33790993 40.77306515 -9.6875 38.75 C-12 37 -12 37 -13.8125 34.9375 C-16.1507812 32.86645094 -17.09771957 32.63597943 -20.0625 32.0625 C-23.10808104 31.40338172 -23.83304917 31.17706906 -26.0625 28.8125 C-27.30272151 25.09183547 -27.04540505 22.76345817 -26 19 C-24.14803693 16.83937642 -22.59760594 16.13508272 -19.83984375 15.51171875 C-17.28730224 14.90159907 -15.26366593 14.34351165 -13 13 C-11.77620701 10.45330403 -11.214288 8.15385926 -10.73046875 5.375 C-9.1277003 0.16385979 -4.9991615 -0.81618963 0 0 Z " fill="#FAE26A" transform="translate(427,208)"/>
<path d="M0 0 C5.87564741 2.99047287 9.87824799 7.09224657 13.1875 12.75 C14.53049675 17.41098873 14.51145295 21.624829 14.25 26.4375 C9.2400494 26.4375 6.66376149 24.40870055 2.67578125 21.6953125 C1.95134323 21.21174286 1.22690521 20.72817322 0.48051453 20.22994995 C-1.04790261 19.20698038 -2.57332888 18.17953001 -4.09594727 17.14794922 C-6.43262181 15.56580299 -8.77882843 13.99868241 -11.12695312 12.43359375 C-12.60995922 11.43837001 -14.09240095 10.44230467 -15.57421875 9.4453125 C-16.27834396 8.97441193 -16.98246918 8.50351135 -17.70793152 8.01834106 C-22.63392464 4.66965072 -22.63392464 4.66965072 -23.75 2.4375 C-15.99255918 -2.24623785 -8.61211373 -3.38909416 0 0 Z " fill="#375789" transform="translate(145.75,337.5625)"/>
<path d="M0 0 C4.43379118 1.5394744 8.12562971 3.91630147 11.98046875 6.53515625 C12.96156364 7.19323524 12.96156364 7.19323524 13.96247864 7.86460876 C16.0404536 9.25955119 18.11411596 10.66074506 20.1875 12.0625 C22.27239257 13.46660152 24.35815534 14.86939277 26.44465637 16.27110291 C27.74011556 17.14197147 29.03449501 18.01444879 30.3276825 18.88868713 C33.57634814 21.09082217 33.57634814 21.09082217 37 23 C37 23.66 37 24.32 37 25 C30.32268424 29.10911739 24.79582812 30.00081577 17 29 C9.91858091 27.15638917 5.15918707 21.78966651 1 16 C-0.63195037 12.65214039 -1.25685592 10.02619451 -1.1875 6.3125 C-1.18105469 5.54550781 -1.17460938 4.77851563 -1.16796875 3.98828125 C-1 2 -1 2 0 0 Z " fill="#375789" transform="translate(113,355)"/>
<path d="M0 0 C3.09375 1.464375 6.1875 2.92875 9.375 4.4375 C10.34872559 4.89825928 11.32245117 5.35901855 12.32568359 5.83374023 C13.09219238 6.19669189 13.85870117 6.55964355 14.6484375 6.93359375 C15.43395996 7.30540771 16.21948242 7.67722168 17.02880859 8.06030273 C18.358629 8.69424858 19.68233248 9.34116624 21 10 C21 10.66 21 11.32 21 12 C17.68910974 13.66987892 14.37602825 15.33536259 11.0625 17 C10.11697266 17.47695312 9.17144531 17.95390625 8.19726562 18.4453125 C7.29814453 18.89648438 6.39902344 19.34765625 5.47265625 19.8125 C4.64000244 20.23144531 3.80734863 20.65039062 2.94946289 21.08203125 C1 22 1 22 0 22 C0 14.74 0 7.48 0 0 Z " fill="#E7403D" transform="translate(248,141)"/>
<path d="M0 0 C5.28 0 10.56 0 16 0 C15.525625 1.340625 15.05125 2.68125 14.5625 4.0625 C13.21951701 8.06610966 12.44595063 11.80806405 12 16 C8.04 16 4.08 16 0 16 C0 10.72 0 5.44 0 0 Z " fill="#5F6467" transform="translate(212,320)"/>
</svg>
